HIERARCHY
ROOT Hips
{
  OFFSET 179.979 97.3047 303.174
  CHANNELS 6 Xposition Yposition Zposition Zrotation Xrotation Yrotation
  JOINT Spine
  {
    OFFSET 0.000859786 9.92346 -1.22733
    CHANNELS 3 Zrotation Xrotation Yrotation
    JOINT Spine1
    {
      OFFSET 0 11.732 0
      CHANNELS 3 Zrotation Xrotation Yrotation
      JOINT Spine2
      {
        OFFSET 0 13.4588 0
        CHANNELS 3 Zrotation Xrotation Yrotation
        JOINT Neck
        {
          OFFSET 2.54812e-05 15.0278 0.877907
          CHANNELS 3 Zrotation Xrotation Yrotation
          JOINT Head
          {
            OFFSET 0 10.3218 3.14243
            CHANNELS 3 Zrotation Xrotation Yrotation
            End Site
            {
              OFFSET 0 0 0
            }
          }
        }
        JOINT LeftShoulder
        {
          OFFSET 6.10582 9.10629 0.757062
          CHANNELS 3 Zrotation Xrotation Yrotation
          JOINT LeftArm
          {
            OFFSET 0 12.9223 0
            CHANNELS 3 Zrotation Xrotation Yrotation
            JOINT LeftForeArm
            {
              OFFSET 0 27.4047 0
              CHANNELS 3 Zrotation Xrotation Yrotation
              JOINT LeftHand
              {
                OFFSET -1.28204e-05 27.6145 0
                CHANNELS 3 Zrotation Xrotation Yrotation
                End Site
                {
                  OFFSET 0 0 0
                }
              }
            }
          }
        }
        JOINT RightShoulder
        {
          OFFSET -6.1057 9.10638 0.757076
          CHANNELS 3 Zrotation Xrotation Yrotation
          JOINT RightArm
          {
            OFFSET 0 12.9223 0
            CHANNELS 3 Zrotation Xrotation Yrotation
            JOINT RightForeArm
            {
              OFFSET 0 27.4047 0
              CHANNELS 3 Zrotation Xrotation Yrotation
              JOINT RightHand
              {
                OFFSET 1.28428e-05 27.6145 1.44975e-05
                CHANNELS 3 Zrotation Xrotation Yrotation
                End Site
                {
                  OFFSET 0 0 0
                }
              }
            }
          }
        }
      }
    }
  }
  JOINT LeftUpLeg
  {
    OFFSET 9.12387 -6.65719 -0.0554031
    CHANNELS 3 Zrotation Xrotation Yrotation
    JOINT LeftLeg
    {
      OFFSET 0 40.5994 0
      CHANNELS 3 Zrotation Xrotation Yrotation
      JOINT LeftFoot
      {
        OFFSET 0 42.099 0
        CHANNELS 3 Zrotation Xrotation Yrotation
        JOINT LeftToeBase
        {
          OFFSET 0 15.7216 0
          CHANNELS 3 Zrotation Xrotation Yrotation
          End Site
          {
            OFFSET 0 0 0
          }
        }
      }
    }
  }
  JOINT RightUpLeg
  {
    OFFSET -9.12503 -6.6556 -0.0553527
    CHANNELS 3 Zrotation Xrotation Yrotation
    JOINT RightLeg
    {
      OFFSET 0 40.5994 0
      CHANNELS 3 Zrotation Xrotation Yrotation
      JOINT RightFoot
      {
        OFFSET 0 42.099 0
        CHANNELS 3 Zrotation Xrotation Yrotation
        JOINT RightToeBase
        {
          OFFSET 0 15.7216 0
          CHANNELS 3 Zrotation Xrotation Yrotation
          End Site
          {
            OFFSET 0 0 0
          }
        }
      }
    }
  }
}
MOTION
Frames:	6
Frame Time:	0.0333333
-235.194 99.0733 315.544 0.633396 -3.97477 0.143884 -0.0438594 -6.06897 -0.066737 -0.114462 1.87478 -0.125379 -0.0958715 8.46925 -0.1261 1.51505 24.2634 0.0227078 -2.01091 -14.0393 0.915473 -88.7411 -17.4151 89.9859 24.5533 -8.85185 3.92816 4.36236 -13.0649 -0.512428 -9.27635 4.89676 -0.972577 92.7675 -8.55681 -91.0174 -12.9497 -4.27828 4.40005 -11.4599 -18.1009 0.780442 16.7266 -4.25596 2.94791 -175.281 -6.26968 0.576265 -3.31133 -7.90198 -5.12622 15.2148 75.6944 -15.3814 -0.965267 26.367 -3.60229 174.73 -3.78678 1.61535 1.53259 -12.337 0.742575 -3.59415 77.6796 3.86483 0.963539 26.3682 3.55536 
-235.196 99.0732 315.548 0.633547 -3.97294 0.146128 -0.0438594 -6.06897 -0.066737 -0.114462 1.87478 -0.125379 -0.0958715 8.46925 -0.1261 1.51704 24.2599 0.0226949 -2.01439 -14.0393 0.915473 -88.7396 -17.4176 89.9864 24.5664 -8.8361 3.93168 4.34803 -13.0784 -0.512456 -9.2709 4.9064 -0.963114 92.7701 -8.56394 -91.0168 -12.9624 -4.27956 4.41642 -11.4623 -18.0943 0.780413 16.7271 -4.25998 2.95195 -175.28 -6.26969 0.572371 -3.31094 -7.90201 -5.12241 15.2039 75.695 -15.3714 -0.965267 26.367 -3.60229 174.73 -3.78678 1.61693 1.53259 -12.337 0.742575 -3.59415 77.6796 3.86483 0.963539 26.3682 3.55536 
-235.203 99.0729 315.569 0.634354 -3.96337 0.158165 -0.0438594 -6.06897 -0.066737 -0.114462 1.87478 -0.125379 -0.0958715 8.46925 -0.1261 1.52553 24.2417 0.0226392 -2.03452 -14.0393 0.915473 -88.7312 -17.432 89.9895 24.5984 -8.82144 3.94633 4.32075 -13.0794 -0.512458 -9.24285 4.96059 -0.907066 92.7851 -8.60347 -91.0135 -13.0224 -4.29174 4.44212 -11.489 -18.058 0.780251 16.7362 -4.28292 3.02801 -175.272 -6.2697 0.549738 -3.30872 -7.90221 -5.10052 15.1435 75.7061 -15.316 -0.965267 26.367 -3.60229 174.73 -3.78677 1.62555 1.53847 -12.3448 0.75022 -3.59638 77.6867 3.867 0.963539 26.3682 3.55536 
-235.21 99.0726 315.59 0.635184 -3.95388 0.170579 -0.0438594 -6.06897 -0.066737 -0.114462 1.87478 -0.125379 -0.0958715 8.46925 -0.1261 1.53894 24.2231 0.0172107 -2.05832 -14.0393 0.915473 -88.7214 -17.4463 89.9884 24.6362 -8.79238 3.95868 4.29447 -13.0931 -0.512487 -9.22674 5.06339 -0.887932 92.7897 -8.64551 -91.0116 -13.0843 -4.29087 4.42722 -11.4931 -18.0422 0.780181 16.7673 -4.25367 3.02767 -175.266 -6.26969 0.546308 -3.30768 -7.9023 -5.09025 15.1103 75.7142 -15.2922 -0.965267 26.367 -3.60229 174.731 -3.78675 1.63501 1.54514 -12.353 0.757961 -3.60037 77.6944 3.87243 0.963539 26.3682 3.55536 
-235.218 99.0723 315.613 0.636016 -3.94457 0.183066 -0.0438594 -6.06897 -0.066737 -0.114462 1.87478 -0.125379 -0.0958715 8.46925 -0.1261 1.55608 24.2026 0.0101948 -2.08233 -14.0393 0.915473 -88.7103 -17.459 89.9871 24.6463 -8.78509 3.94803 4.29579 -13.0897 -0.51248 -9.22605 5.20602 -0.904707 92.789 -8.68817 -91.0065 -13.1463 -4.29102 4.35991 -11.4616 -18.0339 0.779886 16.8037 -4.20617 2.97956 -175.261 -6.26969 0.551096 -3.30713 -7.90235 -5.0849 15.088 75.7207 -15.2802 -0.965267 26.367 -3.60229 174.731 -3.78674 1.6455 1.55156 -12.3635 0.765051 -3.62293 77.7024 3.89483 0.963539 26.3682 3.55536 
-235.225 99.0717 315.635 0.636017 -3.93542 0.195805 -0.0438594 -6.06897 -0.066737 -0.114462 1.87478 -0.125379 -0.0958715 8.46925 -0.1261 1.56823 24.1786 0.00116649 -2.09901 -14.0393 0.912538 -88.6988 -17.4694 89.9864 24.6192 -8.82336 3.9338 4.31905 -13.0488 -0.512395 -9.24031 5.29914 -0.92644 92.7859 -8.72751 -91.0018 -13.2015 -4.29292 4.27651 -11.4144 -18.027 0.779563 16.8278 -4.16735 2.91875 -175.256 -6.26968 0.557298 -3.30663 -7.90239 -5.07999 15.0663 75.7268 -15.2692 -0.965267 26.367 -3.60229 174.732 -3.78672 1.65767 1.55675 -12.3712 0.770811 -3.64183 77.7101 3.91368 0.963539 26.3682 3.55536 
